<svg width="229" height="229" viewBox="0 0 229 229" fill="none" xmlns="http://www.w3.org/2000/svg">
<g clip-path="url(#clip0_539_700)">
<rect width="229" height="229" fill="#15274B"/>
<path d="M135.146 189.763C133.231 191.486 131.056 192.301 128.621 192.208C126.158 192.219 123.958 191.461 122.018 189.935C120.156 188.542 119.01 186.558 118.582 183.983C118.23 181.541 119.155 178.714 121.357 175.503C127.532 166.647 132.589 157.995 136.53 149.547C140.471 141.099 143.769 131.92 146.424 122.01C149.08 112.099 150.747 102.539 151.426 93.3289C152.133 84.0145 152.145 73.9548 151.462 63.1499C151.161 59.2676 151.773 56.3569 153.299 54.4177C154.957 52.4022 156.955 51.2046 159.293 50.8247C161.735 50.4728 164.02 50.9173 166.147 52.1582C168.303 53.2948 169.765 55.1401 170.534 57.6942C174.499 69.6022 176.433 81.5808 176.335 93.63C176.369 105.603 174.849 117.327 171.774 128.802C168.699 140.277 164.192 151.257 158.252 161.741C152.34 172.12 144.638 181.461 135.146 189.763Z" fill="white"/>
<path d="M96.5479 39.3355C98.4803 37.6317 100.663 36.8387 103.097 36.9564C105.56 36.97 107.753 37.7495 109.677 39.2947C111.526 40.7069 112.651 42.7023 113.054 45.281C113.381 47.7267 112.428 50.5442 110.193 53.7334C103.931 62.5269 98.7869 71.1277 94.7618 79.5358C90.7367 87.9439 87.347 97.0896 84.5925 106.973C81.838 116.856 80.0753 126.399 79.3043 135.602C78.5043 144.909 78.3916 154.968 78.9663 165.779C79.2289 169.664 78.5876 172.569 77.0424 174.493C75.3641 176.492 73.3542 177.669 71.0125 178.026C68.5669 178.353 66.2866 177.886 64.1718 176.624C62.028 175.466 60.5843 173.606 59.8407 171.044C55.995 159.097 54.1813 147.1 54.3997 135.052C54.4851 123.079 56.1225 111.371 59.3119 99.9272C62.5013 88.4833 67.1182 77.5494 73.1626 67.1255C79.1781 56.8056 86.9731 47.5422 96.5479 39.3355Z" fill="white"/>
<path d="M75.1198 103.599C74.5908 105.573 73.7349 106.981 72.552 107.823C71.3347 108.605 69.8799 108.77 68.1876 108.316C66.4483 107.85 65.2706 106.98 64.6546 105.707C64.0041 104.374 63.9434 102.72 64.4724 100.746C65.5557 96.703 67.8836 95.1603 71.4563 96.1176C74.9819 97.0623 76.2031 99.556 75.1198 103.599ZM116.652 114.727C116.186 116.466 115.333 117.674 114.094 118.35C112.821 118.966 111.267 119.028 109.434 118.537L85.3185 112.075C81.4168 111.03 79.9446 108.721 80.9019 105.148C81.3553 103.456 82.2188 102.302 83.4923 101.685C84.7314 101.01 86.2911 100.924 88.1714 101.428L112.287 107.889C114.12 108.381 115.434 109.211 116.229 110.382C116.977 111.539 117.118 112.988 116.652 114.727Z" fill="white"/>
<path d="M151.849 143.535C152.378 141.561 153.234 140.153 154.417 139.311C155.634 138.528 157.089 138.364 158.781 138.818C160.521 139.284 161.698 140.153 162.314 141.427C162.965 142.76 163.026 144.414 162.497 146.388C161.413 150.431 159.085 151.973 155.513 151.016C151.987 150.072 150.766 147.578 151.849 143.535ZM110.317 132.407C110.783 130.667 111.636 129.46 112.875 128.784C114.148 128.168 115.702 128.106 117.535 128.597L141.65 135.059C145.552 136.104 147.024 138.413 146.067 141.986C145.614 143.678 144.75 144.832 143.477 145.448C142.238 146.124 140.678 146.21 138.798 145.706L114.682 139.244C112.849 138.753 111.535 137.922 110.74 136.752C109.992 135.594 109.851 134.146 110.317 132.407Z" fill="white"/>
<path d="M163.237 101.035C163.766 99.0607 164.622 97.6526 165.805 96.8108C167.022 96.0285 168.477 95.8641 170.169 96.3175C171.909 96.7836 173.086 97.6534 173.702 98.9269C174.353 100.26 174.414 101.914 173.885 103.888C172.801 107.931 170.473 109.473 166.901 108.516C163.375 107.572 162.154 105.078 163.237 101.035ZM121.705 89.9066C122.171 88.1673 123.024 86.9599 124.263 86.2842C125.536 85.6681 127.09 85.6057 128.923 86.097L153.039 92.5587C156.94 93.6041 158.412 95.9132 157.455 99.4858C157.002 101.178 156.138 102.332 154.865 102.948C153.626 103.624 152.066 103.71 150.186 103.206L126.07 96.7444C124.237 96.2531 122.923 95.4224 122.128 94.2521C121.38 93.0944 121.239 91.646 121.705 89.9066Z" fill="white"/>
</g>
<defs>
<clipPath id="clip0_539_700">
<rect width="229" height="229" fill="white"/>
</clipPath>
</defs>
</svg>
