<svg width="1600" height="800" viewBox="0 0 1600 800" fill="none" xmlns="http://www.w3.org/2000/svg">
<rect width="1600" height="800" fill="#15274B"/>
<path d="M1196.29 334.66C1192.77 334.66 1189.96 333.604 1187.84 331.492C1185.82 329.38 1184.81 326.652 1184.81 323.308C1184.81 320.052 1185.82 317.412 1187.84 315.388C1189.96 313.276 1192.77 312.22 1196.29 312.22C1199.81 312.22 1202.54 313.276 1204.48 315.388C1206.5 317.412 1207.51 320.052 1207.51 323.308C1207.51 326.652 1206.5 329.38 1204.48 331.492C1202.54 333.604 1199.81 334.66 1196.29 334.66Z" fill="white"/>
<path d="M601.064 453C593.936 453 590.372 449.436 590.372 442.308V370.632C590.372 363.504 593.936 359.94 601.064 359.94H626.804C642.644 359.94 654.92 363.988 663.632 372.084C672.344 380.092 676.7 391.532 676.7 406.404C676.7 421.276 672.344 432.76 663.632 440.856C654.92 448.952 642.644 453 626.804 453H601.064ZM610.832 436.236H625.616C645.416 436.236 655.316 426.292 655.316 406.404C655.316 386.604 645.416 376.704 625.616 376.704H610.832V436.236ZM712.791 454.452C707.951 454.452 703.683 453.528 699.987 451.68C696.291 449.832 693.343 447.324 691.143 444.156C689.031 440.988 687.975 437.424 687.975 433.464C687.975 428.8 689.207 425.06 691.671 422.244C694.135 419.428 698.139 417.448 703.683 416.304C709.227 415.072 716.575 414.456 725.727 414.456H730.479V412.212C730.479 408.34 729.599 405.612 727.839 404.028C726.079 402.356 723.087 401.52 718.863 401.52C716.487 401.52 713.891 401.828 711.075 402.444C708.259 402.972 705.223 403.896 701.967 405.216C699.503 406.272 697.435 406.36 695.763 405.48C694.091 404.512 692.991 403.104 692.463 401.256C691.935 399.32 692.067 397.384 692.859 395.448C693.739 393.512 695.411 392.104 697.875 391.224C702.011 389.64 705.883 388.54 709.491 387.924C713.187 387.22 716.575 386.868 719.655 386.868C729.687 386.868 737.167 389.156 742.095 393.732C747.023 398.22 749.487 405.216 749.487 414.72V444.024C749.487 450.8 746.407 454.188 740.247 454.188C733.999 454.188 730.875 450.8 730.875 444.024V443.232C729.555 446.664 727.311 449.392 724.143 451.416C721.063 453.44 717.279 454.452 712.791 454.452ZM717.279 441.12C720.975 441.12 724.099 439.844 726.651 437.292C729.203 434.74 730.479 431.44 730.479 427.392V424.752H725.859C719.083 424.752 714.287 425.368 711.471 426.6C708.655 427.744 707.247 429.768 707.247 432.672C707.247 435.136 708.083 437.16 709.755 438.744C711.515 440.328 714.023 441.12 717.279 441.12ZM774.651 454.188C767.787 454.188 764.355 450.8 764.355 444.024V397.164C764.355 390.476 767.611 387.132 774.123 387.132C780.635 387.132 783.891 390.476 783.891 397.164V399.54C787.059 391.708 793.615 387.484 803.559 386.868C805.759 386.692 807.431 387.264 808.575 388.584C809.807 389.816 810.467 391.884 810.555 394.788C810.731 397.516 810.159 399.672 808.839 401.256C807.607 402.84 805.495 403.808 802.503 404.16L799.467 404.424C789.611 405.392 784.683 410.408 784.683 419.472V444.024C784.683 450.8 781.339 454.188 774.651 454.188ZM849.414 454.188C844.046 454.188 840.306 451.504 838.194 446.136L819.582 400.068C818.174 396.46 818.174 393.424 819.582 390.96C821.078 388.408 823.85 387.132 827.898 387.132C830.186 387.132 832.034 387.704 833.442 388.848C834.938 389.904 836.258 391.972 837.402 395.052L850.338 429.768L863.934 393.336C865.43 389.2 868.246 387.132 872.382 387.132C876.518 387.132 879.378 389.2 880.962 393.336L894.426 430.296L907.626 394.524C908.682 391.708 910.002 389.772 911.586 388.716C913.258 387.66 915.106 387.132 917.13 387.132C920.914 387.132 923.378 388.452 924.522 391.092C925.666 393.732 925.534 396.724 924.126 400.068L905.646 446.136C903.534 451.504 899.794 454.188 894.426 454.188C889.058 454.188 885.318 451.504 883.206 446.136L871.722 416.172L860.502 446.004C858.478 451.46 854.782 454.188 849.414 454.188ZM946.477 376.308C942.781 376.308 939.921 375.472 937.897 373.8C935.961 372.04 934.993 369.576 934.993 366.408C934.993 363.152 935.961 360.688 937.897 359.016C939.921 357.256 942.781 356.376 946.477 356.376C954.045 356.376 957.829 359.72 957.829 366.408C957.829 373.008 954.045 376.308 946.477 376.308ZM946.477 454.056C943.221 454.056 940.713 453.132 938.953 451.284C937.281 449.348 936.445 446.664 936.445 443.232V398.088C936.445 390.784 939.789 387.132 946.477 387.132C949.645 387.132 952.065 388.1 953.737 390.036C955.497 391.884 956.377 394.568 956.377 398.088V443.232C956.377 446.664 955.541 449.348 953.869 451.284C952.197 453.132 949.733 454.056 946.477 454.056ZM981.797 454.188C975.109 454.188 971.765 450.8 971.765 444.024V397.164C971.765 390.476 975.021 387.132 981.533 387.132C988.045 387.132 991.301 390.476 991.301 397.164V397.692C993.501 394.172 996.449 391.488 1000.15 389.64C1003.84 387.792 1007.98 386.868 1012.55 386.868C1020.21 386.868 1025.93 389.112 1029.71 393.6C1033.5 398 1035.39 404.82 1035.39 414.06V444.024C1035.39 450.8 1032.05 454.188 1025.36 454.188C1022.19 454.188 1019.73 453.308 1017.97 451.548C1016.29 449.788 1015.46 447.28 1015.46 444.024V414.984C1015.46 410.496 1014.62 407.284 1012.95 405.348C1011.28 403.324 1008.81 402.312 1005.56 402.312C1001.33 402.312 997.945 403.632 995.393 406.272C992.929 408.912 991.697 412.432 991.697 416.832V444.024C991.697 450.8 988.397 454.188 981.797 454.188ZM1128.72 454.452C1115.52 454.452 1105.44 451.064 1098.49 444.288C1091.62 437.512 1088.19 427.436 1088.19 414.06V369.18C1088.19 365.836 1089.07 363.284 1090.83 361.524C1092.59 359.676 1095.14 358.752 1098.49 358.752C1105.26 358.752 1108.65 362.228 1108.65 369.18V414.192C1108.65 421.76 1110.37 427.48 1113.8 431.352C1117.23 435.136 1122.2 437.028 1128.72 437.028C1142 437.028 1148.65 429.416 1148.65 414.192V369.18C1148.65 362.228 1152.04 358.752 1158.81 358.752C1162.07 358.752 1164.53 359.676 1166.2 361.524C1167.96 363.284 1168.84 365.836 1168.84 369.18V414.06C1168.84 427.436 1165.46 437.512 1158.68 444.288C1151.9 451.064 1141.92 454.452 1128.72 454.452ZM1197.25 454.188C1193.9 454.188 1191.35 453.264 1189.59 451.416C1187.83 449.568 1186.95 446.972 1186.95 443.628V369.312C1186.95 362.272 1190.38 358.752 1197.25 358.752C1204.02 358.752 1207.41 362.272 1207.41 369.312V443.628C1207.41 450.668 1204.02 454.188 1197.25 454.188Z" fill="white"/>
<path d="M497.146 475.013C495.231 476.736 493.056 477.551 490.621 477.458C488.158 477.469 485.958 476.711 484.018 475.185C482.156 473.792 481.01 471.808 480.582 469.233C480.23 466.791 481.155 463.964 483.357 460.753C489.532 451.897 494.589 443.245 498.53 434.797C502.471 426.349 505.769 417.17 508.424 407.26C511.08 397.349 512.747 387.789 513.426 378.579C514.133 369.264 514.145 359.205 513.462 348.4C513.161 344.518 513.773 341.607 515.299 339.668C516.957 337.652 518.955 336.455 521.293 336.075C523.735 335.723 526.02 336.167 528.147 337.408C530.303 338.545 531.765 340.39 532.534 342.944C536.499 354.852 538.433 366.831 538.335 378.88C538.369 390.853 536.849 402.577 533.774 414.052C530.699 425.527 526.192 436.507 520.252 446.991C514.34 457.37 506.638 466.711 497.146 475.013Z" fill="white"/>
<path d="M469.548 324.585C471.48 322.882 473.663 322.089 476.097 322.206C478.56 322.22 480.753 322.999 482.677 324.545C484.526 325.957 485.651 327.952 486.054 330.531C486.381 332.977 485.428 335.794 483.193 338.983C476.931 347.777 471.787 356.378 467.762 364.786C463.737 373.194 460.347 382.34 457.592 392.223C454.838 402.106 453.075 411.649 452.304 420.852C451.504 430.159 451.392 440.218 451.966 451.029C452.229 454.914 451.588 457.819 450.042 459.743C448.364 461.742 446.354 462.919 444.013 463.276C441.567 463.603 439.287 463.136 437.172 461.874C435.028 460.716 433.584 458.856 432.841 456.294C428.995 444.347 427.181 432.35 427.4 420.302C427.485 408.329 429.123 396.621 432.312 385.177C435.501 373.733 440.118 362.799 446.163 352.375C452.178 342.056 459.973 332.792 469.548 324.585Z" fill="white"/>
<path d="M448.12 388.849C447.591 390.823 446.735 392.231 445.552 393.073C444.335 393.855 442.88 394.02 441.188 393.566C439.448 393.1 438.271 392.23 437.655 390.957C437.004 389.624 436.943 387.97 437.472 385.996C438.556 381.953 440.884 380.41 444.456 381.368C447.982 382.312 449.203 384.806 448.12 388.849ZM489.652 399.977C489.186 401.716 488.333 402.924 487.094 403.6C485.821 404.216 484.267 404.278 482.434 403.787L458.318 397.325C454.417 396.28 452.945 393.971 453.902 390.398C454.355 388.706 455.219 387.552 456.492 386.935C457.731 386.26 459.291 386.174 461.171 386.678L485.287 393.139C487.12 393.631 488.434 394.461 489.229 395.632C489.977 396.789 490.118 398.238 489.652 399.977Z" fill="white"/>
<path d="M513.849 428.785C514.378 426.811 515.234 425.403 516.417 424.561C517.634 423.778 519.089 423.614 520.781 424.068C522.521 424.534 523.698 425.403 524.314 426.677C524.965 428.01 525.026 429.664 524.497 431.638C523.413 435.681 521.085 437.223 517.513 436.266C513.987 435.322 512.766 432.828 513.849 428.785ZM472.317 417.657C472.783 415.917 473.636 414.71 474.875 414.034C476.148 413.418 477.702 413.356 479.535 413.847L503.65 420.309C507.552 421.354 509.024 423.663 508.067 427.236C507.614 428.928 506.75 430.082 505.477 430.698C504.238 431.374 502.678 431.46 500.797 430.956L476.682 424.494C474.849 424.003 473.535 423.172 472.74 422.002C471.992 420.844 471.851 419.396 472.317 417.657Z" fill="white"/>
<path d="M525.237 386.285C525.766 384.311 526.622 382.903 527.805 382.061C529.022 381.278 530.477 381.114 532.169 381.568C533.909 382.034 535.086 382.903 535.702 384.177C536.353 385.51 536.414 387.164 535.885 389.138C534.801 393.181 532.473 394.723 528.901 393.766C525.375 392.822 524.154 390.328 525.237 386.285ZM483.705 375.157C484.171 373.417 485.024 372.21 486.263 371.534C487.536 370.918 489.09 370.856 490.923 371.347L515.039 377.809C518.94 378.854 520.412 381.163 519.455 384.736C519.002 386.428 518.138 387.582 516.865 388.198C515.626 388.874 514.066 388.96 512.186 388.456L488.07 381.994C486.237 381.503 484.923 380.672 484.128 379.502C483.38 378.344 483.239 376.896 483.705 375.157Z" fill="white"/>
</svg>
